<svg id="Capa_1" enable-background="new 0 0 512 512" height="512" viewBox="0 0 512 512" width="512" xmlns="http://www.w3.org/2000/svg"><g><path d="m512 255.967c0 112.497-72.583 208.044-173.479 242.377-7.935 2.7-16.16-3.29-16.16-11.671 0-77.164-62.562-139.718-139.736-139.718h-147.005c-11.668 0-22.023-7.633-25.306-18.828-6.652-22.679-10.248-46.665-10.313-71.481-.367-141.282 114.699-256.646 256-256.646 141.384 0 255.999 114.601 255.999 255.967z" fill="#07a9f0"/><path d="m461.064 278.497c0 115.136-93.349 208.473-208.5 208.473s-208.5-93.336-208.5-208.473 93.349-208.473 208.5-208.473 208.5 93.337 208.5 208.473z" fill="#40c1fa"/><path d="m211.623 0h251.137c4.551 0 8.24 3.689 8.24 8.24v353.471c0 4.551-3.689 8.24-8.24 8.24h-251.137c-4.551 0-8.24-3.689-8.24-8.24v-353.471c0-4.551 3.689-8.24 8.24-8.24z" fill="#6a61b4"/><path d="m212 0v369.952h-49v-359.953c0-5.523 4.477-9.999 10-9.999z" fill="#51489a"/><path d="m390 94.988c0 2.761-2.239 4.999-5 4.999h-70c-2.761 0-5-2.238-5-4.999s2.239-4.999 5-4.999h70c2.761-.001 5 2.238 5 4.999zm-75-14.998h70c2.761 0 5-2.238 5-4.999s-2.239-4.999-5-4.999h-70c-2.761 0-5 2.238-5 4.999s2.239 4.999 5 4.999zm70 29.996h-30c-2.761 0-5 2.238-5 4.999s2.239 4.999 5 4.999h30c2.761 0 5-2.238 5-4.999s-2.239-4.999-5-4.999z" fill="#c1bde0"/><path d="m352.175 440.118h-122c-5.523 0-10-4.477-10-9.999v-46.345c0-5.522 4.477-9.999 10-9.999h122c5.523 0 10 4.477 10 9.999v46.345c0 5.522-4.477 9.999-10 9.999z" fill="#9bcf1b"/><path d="m362.175 380.126h-122c-5.523 0-10-4.477-10-9.999v-46.345c0-5.522 4.477-9.999 10-9.999h122c5.523 0 10 4.477 10 9.999v46.345c0 5.522-4.477 9.999-10 9.999z" fill="#f76937"/><path d="m436.733 150.437c4.166 8.33 6.334 17.516 6.334 26.829v267.676c0 5.208-4.223 9.431-9.432 9.431h-33.271c-5.209 0-9.432-4.222-9.432-9.431v-267.676c0-9.313 2.169-18.499 6.334-26.829l6.3-12.599c5.535-11.068 21.331-11.068 26.866 0z" fill="#ffb52d"/><path d="m430.433 137.838 6.3 12.599c4.166 8.33 6.334 17.516 6.334 26.829v188.653c0 8.854-7.179 16.032-16.034 16.032-8.855 0-16.034-7.178-16.034-16.032v-235.156c6.858-2.943 15.604-.584 19.434 7.075z" fill="#ffc14f"/><path d="m403.315 138.343 7.809-15.616c2.421-4.842 9.331-4.842 11.753 0l7.809 15.616z" fill="#ea552d"/><path d="m390.933 456.782v-11.841h52.135v11.841c0 7.266-4.477 13.156-10 13.156h-32.135c-5.523.001-10-5.89-10-13.156z" fill="#f76937"/><path d="m421 469.939h-20.067c-5.523 0-10-5.89-10-13.156v-11.841h20.067v11.841c0 7.265 4.477 13.156 10 13.156z" fill="#ea552d"/><path d="m339.069 300.096-.163 198.219c-26.036 8.893-53.96 13.709-83.011 13.685-80.147-.065-151.661-36.951-198.554-94.642v-120.049c6.037 1.679 12.343 2.566 18.783 2.571z" fill="#04D361"/><path d="m10 253.967h58v175.737c-26.684-28.854-46.807-63.862-58-102.656zm170.319 65.983c-27.062-.022-49.018 21.895-49.04 48.954s21.898 49.012 48.96 49.034 49.018-21.895 49.04-48.953c.022-27.059-21.898-49.012-48.96-49.035z" fill="#04BF58"/><path d="m230.01 451.941h-100.02c-2.756 0-4.99-2.234-4.99-4.99v-.02c0-2.756 2.234-4.99 4.99-4.99h100.02c2.756 0 4.99 2.234 4.99 4.99v.02c0 2.756-2.234 4.99-4.99 4.99zm-6.01 15.008v-.02c0-2.756-2.234-4.99-4.99-4.99h-78.02c-2.756 0-4.99 2.234-4.99 4.99v.02c0 2.756 2.234 4.99 4.99 4.99h78.021c2.755-.001 4.989-2.235 4.989-4.99zm-43.696-128.001c-16.569-.014-30.011 13.405-30.025 29.971s13.407 30.007 29.975 30.021 30.011-13.405 30.025-29.971c.014-16.567-13.407-30.007-29.975-30.021z" fill="#04A64F"/><path d="m152 21.593c0-2.761 2.239-4.999 5-4.999h30c2.761 0 5 2.238 5 4.999s-2.239 4.999-5 4.999h-30c-2.761 0-5-2.238-5-4.999zm35 14.998h-30c-2.761 0-5 2.238-5 4.999s2.239 4.999 5 4.999h30c2.761 0 5-2.238 5-4.999s-2.239-4.999-5-4.999zm0 19.997h-30c-2.761 0-5 2.238-5 4.999s2.239 4.999 5 4.999h30c2.761 0 5-2.238 5-4.999 0-2.76-2.239-4.999-5-4.999zm0 19.998h-30c-2.761 0-5 2.238-5 4.999s2.239 4.999 5 4.999h30c2.761 0 5-2.238 5-4.999s-2.239-4.999-5-4.999zm0 49.993h-30c-2.761 0-5 2.238-5 4.999s2.239 4.999 5 4.999h30c2.761 0 5-2.238 5-4.999 0-2.76-2.239-4.999-5-4.999zm0 19.998h-30c-2.761 0-5 2.238-5 4.999s2.239 4.999 5 4.999h30c2.761 0 5-2.238 5-4.999s-2.239-4.999-5-4.999zm0 19.997h-30c-2.761 0-5 2.238-5 4.999s2.239 4.999 5 4.999h30c2.761 0 5-2.238 5-4.999s-2.239-4.999-5-4.999zm0 19.997h-30c-2.761 0-5 2.238-5 4.999s2.239 4.999 5 4.999h30c2.761 0 5-2.238 5-4.999 0-2.76-2.239-4.999-5-4.999z" fill="#ffb52d"/><path d="m192 151.576c0 2.761-2.239 4.999-5 4.999h-10c-2.761 0-5-2.238-5-4.999s2.239-4.999 5-4.999h10c2.761 0 5 2.238 5 4.999zm-5-24.997h-10c-2.761 0-5 2.238-5 4.999s2.239 4.999 5 4.999h10c2.761 0 5-2.238 5-4.999 0-2.76-2.239-4.999-5-4.999zm0-69.991h-10c-2.761 0-5 2.238-5 4.999s2.239 4.999 5 4.999h10c2.761 0 5-2.238 5-4.999 0-2.76-2.239-4.999-5-4.999zm0 19.998h-10c-2.761 0-5 2.238-5 4.999s2.239 4.999 5 4.999h10c2.761 0 5-2.238 5-4.999s-2.239-4.999-5-4.999zm0 109.985h-10c-2.761 0-5 2.238-5 4.999s2.239 4.999 5 4.999h10c2.761 0 5-2.238 5-4.999 0-2.76-2.239-4.999-5-4.999zm-10-159.979h10c2.761 0 5-2.238 5-4.999s-2.239-4.999-5-4.999h-10c-2.761 0-5 2.238-5 4.999s2.239 4.999 5 4.999zm10 9.999h-10c-2.761 0-5 2.238-5 4.999s2.239 4.999 5 4.999h10c2.761 0 5-2.238 5-4.999s-2.239-4.999-5-4.999zm0 129.983h-10c-2.761 0-5 2.238-5 4.999s2.239 4.999 5 4.999h10c2.761 0 5-2.238 5-4.999s-2.239-4.999-5-4.999z" fill="#ffcd71"/><path d="m336.998 295.961h-296.998c-22.091 0-40-17.906-40-39.995s17.909-39.995 40-39.995h296.998c-5.022 6.685-7.998 14.993-7.998 23.997v31.996c0 9.004 2.976 17.313 7.998 23.997z" fill="#e7e7e7"/><path d="m171.5 264.965c0 2.761-2.239 4.999-5 4.999h-122.481c5.675 15.185 20.315 25.997 37.481 25.997h-39c-22.091 0-40-17.906-40-39.995s17.909-39.995 40-39.995h39c-16.403 0-30.499 9.872-36.671 23.997h231.671c2.761 0 5 2.238 5 4.999s-2.239 4.999-5 4.999h-234.553c-.294 1.957-.447 3.96-.447 5.999 0 1.35.067 2.684.198 3.999h124.802c2.761.002 5 2.24 5 5.001zm125-4.999h-90c-2.761 0-5 2.238-5 4.999s2.239 4.999 5 4.999h90c2.761 0 5-2.238 5-4.999s-2.239-4.999-5-4.999z" fill="#cecece"/><path d="m346.998 295.961c0 2.761-2.239 4.999-5 4.999h-296.998c-24.813 0-45-20.184-45-44.994s20.187-44.994 45-44.994h296.998c2.761 0 5 2.238 5 4.999s-2.239 4.999-5 4.999h-296.998c-19.299 0-35 15.699-35 34.995s15.701 34.995 35 34.995h296.998c2.761.002 5 2.24 5 5.001z" fill="#04A64F"/></g></svg>